<mxfile host="app.diagrams.net" agent="Mozilla/5.0 (X11; Linux x86_64) AppleWebKit/537.36 (KHTML, like Gecko) Chrome/133.0.0.0 Safari/537.36" version="26.0.16">
  <diagram name="Page-1" id="mwVX5P4yMvHlKBMzzYoP">
    <mxGraphModel dx="1433" dy="819" grid="1" gridSize="10" guides="1" tooltips="1" connect="1" arrows="1" fold="1" page="1" pageScale="1" pageWidth="1169" pageHeight="827" math="0" shadow="0">
      <root>
        <mxCell id="0" />
        <mxCell id="1" parent="0" />
        <mxCell id="DfGJheei--zyE-0DFCmV-10" value="" style="edgeStyle=orthogonalEdgeStyle;rounded=0;orthogonalLoop=1;jettySize=auto;html=1;" edge="1" parent="1" source="DfGJheei--zyE-0DFCmV-4" target="DfGJheei--zyE-0DFCmV-6">
          <mxGeometry relative="1" as="geometry">
            <mxPoint x="237" y="279" as="targetPoint" />
          </mxGeometry>
        </mxCell>
        <mxCell id="DfGJheei--zyE-0DFCmV-12" value="deploy" style="edgeLabel;html=1;align=center;verticalAlign=middle;resizable=0;points=[];fontSize=15;" vertex="1" connectable="0" parent="DfGJheei--zyE-0DFCmV-10">
          <mxGeometry x="-0.0802" relative="1" as="geometry">
            <mxPoint as="offset" />
          </mxGeometry>
        </mxCell>
        <mxCell id="DfGJheei--zyE-0DFCmV-4" value="Pre-trained&lt;div&gt;models&lt;/div&gt;" style="sketch=0;points=[[0,0,0],[0.25,0,0],[0.5,0,0],[0.75,0,0],[1,0,0],[0,1,0],[0.25,1,0],[0.5,1,0],[0.75,1,0],[1,1,0],[0,0.25,0],[0,0.5,0],[0,0.75,0],[1,0.25,0],[1,0.5,0],[1,0.75,0]];outlineConnect=0;fontColor=#232F3E;fillColor=#7AA116;strokeColor=#ffffff;dashed=0;verticalLabelPosition=bottom;verticalAlign=top;align=center;html=1;fontSize=15;fontStyle=0;aspect=fixed;shape=mxgraph.aws4.resourceIcon;resIcon=mxgraph.aws4.s3;" vertex="1" parent="1">
          <mxGeometry x="80" y="249" width="78" height="78" as="geometry" />
        </mxCell>
        <mxCell id="DfGJheei--zyE-0DFCmV-6" value="Endpoint" style="points=[[0,0],[0.25,0],[0.5,0],[0.75,0],[1,0],[1,0.25],[1,0.5],[1,0.75],[1,1],[0.75,1],[0.5,1],[0.25,1],[0,1],[0,0.75],[0,0.5],[0,0.25]];outlineConnect=0;gradientColor=none;html=1;whiteSpace=wrap;fontSize=15;fontStyle=0;container=1;pointerEvents=0;collapsible=0;recursiveResize=0;shape=mxgraph.aws4.group;grIcon=mxgraph.aws4.group_ec2_instance_contents;strokeColor=#D86613;fillColor=none;verticalAlign=top;align=left;spacingLeft=30;fontColor=#D86613;dashed=0;strokeWidth=3;" vertex="1" parent="1">
          <mxGeometry x="290" y="200" width="220" height="176" as="geometry" />
        </mxCell>
        <mxCell id="DfGJheei--zyE-0DFCmV-7" value="&lt;font&gt;pre-trained&lt;/font&gt;&lt;div&gt;&lt;font&gt;model&lt;/font&gt;&lt;/div&gt;" style="sketch=0;outlineConnect=0;fontColor=#232F3E;gradientColor=none;fillColor=#01A88D;strokeColor=none;dashed=0;verticalLabelPosition=bottom;verticalAlign=top;align=center;html=1;fontSize=15;fontStyle=0;aspect=fixed;pointerEvents=1;shape=mxgraph.aws4.sagemaker_model;" vertex="1" parent="DfGJheei--zyE-0DFCmV-6">
          <mxGeometry x="20" y="46" width="78" height="78" as="geometry" />
        </mxCell>
        <mxCell id="DfGJheei--zyE-0DFCmV-8" value="Inference&lt;div&gt;EC2&lt;/div&gt;" style="sketch=0;points=[[0,0,0],[0.25,0,0],[0.5,0,0],[0.75,0,0],[1,0,0],[0,1,0],[0.25,1,0],[0.5,1,0],[0.75,1,0],[1,1,0],[0,0.25,0],[0,0.5,0],[0,0.75,0],[1,0.25,0],[1,0.5,0],[1,0.75,0]];outlineConnect=0;fontColor=#232F3E;fillColor=#ED7100;strokeColor=#ffffff;dashed=0;verticalLabelPosition=bottom;verticalAlign=top;align=center;html=1;fontSize=15;fontStyle=0;aspect=fixed;shape=mxgraph.aws4.resourceIcon;resIcon=mxgraph.aws4.ec2;" vertex="1" parent="DfGJheei--zyE-0DFCmV-6">
          <mxGeometry x="130" y="49.5" width="71" height="71" as="geometry" />
        </mxCell>
        <mxCell id="DfGJheei--zyE-0DFCmV-13" value="User" style="sketch=0;outlineConnect=0;fontColor=#232F3E;gradientColor=none;fillColor=#232F3D;strokeColor=none;dashed=0;verticalLabelPosition=bottom;verticalAlign=top;align=center;html=1;fontSize=15;fontStyle=0;aspect=fixed;pointerEvents=1;shape=mxgraph.aws4.user;" vertex="1" parent="1">
          <mxGeometry x="760" y="247" width="80" height="80" as="geometry" />
        </mxCell>
        <mxCell id="DfGJheei--zyE-0DFCmV-14" style="edgeStyle=orthogonalEdgeStyle;rounded=0;orthogonalLoop=1;jettySize=auto;html=1;exitX=0.048;exitY=0.378;exitDx=0;exitDy=0;exitPerimeter=0;" edge="1" parent="1" source="DfGJheei--zyE-0DFCmV-23" target="DfGJheei--zyE-0DFCmV-6">
          <mxGeometry relative="1" as="geometry">
            <mxPoint x="610" y="230" as="sourcePoint" />
            <mxPoint x="530" y="230" as="targetPoint" />
            <Array as="points">
              <mxPoint x="632" y="240" />
            </Array>
          </mxGeometry>
        </mxCell>
        <mxCell id="DfGJheei--zyE-0DFCmV-16" style="edgeStyle=orthogonalEdgeStyle;rounded=0;orthogonalLoop=1;jettySize=auto;html=1;" edge="1" parent="1" source="DfGJheei--zyE-0DFCmV-6" target="DfGJheei--zyE-0DFCmV-13">
          <mxGeometry relative="1" as="geometry">
            <mxPoint x="760" y="297" as="targetPoint" />
            <Array as="points">
              <mxPoint x="740" y="320" />
              <mxPoint x="740" y="287" />
            </Array>
          </mxGeometry>
        </mxCell>
        <mxCell id="DfGJheei--zyE-0DFCmV-25" value="class prediction&lt;div&gt;&amp;amp; b&lt;span style=&quot;background-color: light-dark(#ffffff, var(--ge-dark-color, #121212)); color: light-dark(rgb(0, 0, 0), rgb(255, 255, 255));&quot;&gt;ounding box&lt;/span&gt;&lt;/div&gt;" style="edgeLabel;html=1;align=center;verticalAlign=middle;resizable=0;points=[];fontSize=13;" vertex="1" connectable="0" parent="DfGJheei--zyE-0DFCmV-16">
          <mxGeometry x="0.2206" y="-2" relative="1" as="geometry">
            <mxPoint x="-33" as="offset" />
          </mxGeometry>
        </mxCell>
        <mxCell id="DfGJheei--zyE-0DFCmV-23" value="input image" style="shape=image;html=1;verticalAlign=bottom;verticalLabelPosition=top;labelBackgroundColor=#ffffff;imageAspect=0;aspect=fixed;image=https://cdn3.iconfinder.com/data/icons/essential-pack-2/48/10-Image_File-128.png;fontSize=13;labelPosition=center;align=center;" vertex="1" parent="1">
          <mxGeometry x="630" y="220" width="50" height="50" as="geometry" />
        </mxCell>
        <mxCell id="DfGJheei--zyE-0DFCmV-24" style="edgeStyle=orthogonalEdgeStyle;rounded=0;orthogonalLoop=1;jettySize=auto;html=1;entryX=1;entryY=0.4;entryDx=0;entryDy=0;entryPerimeter=0;" edge="1" parent="1" source="DfGJheei--zyE-0DFCmV-13" target="DfGJheei--zyE-0DFCmV-23">
          <mxGeometry relative="1" as="geometry">
            <mxPoint x="690" y="230" as="targetPoint" />
            <Array as="points">
              <mxPoint x="800" y="240" />
            </Array>
          </mxGeometry>
        </mxCell>
      </root>
    </mxGraphModel>
  </diagram>
</mxfile>
